<svg version="1.1" xmlns="http://www.w3.org/2000/svg" xmlns:xlink="http://www.w3.org/1999/xlink" width="16" height="16" viewBox="0,0,256,256"><g fill="#ffffff" fill-rule="nonzero" stroke="none" stroke-width="1" stroke-linecap="butt" stroke-linejoin="miter" stroke-miterlimit="10" stroke-dasharray="" stroke-dashoffset="0" font-family="none" font-weight="none" font-size="none" text-anchor="none" style="mix-blend-mode: normal"><g transform="translate(2.5279,0.00382) scale(16,16)"><path d="M15.545,6.558c0.09338,0.53695 0.13989,1.081 0.139,1.626c0,2.434 -0.87,4.492 -2.384,5.885h0.002c-1.324,1.223 -3.144,1.931 -5.302,1.931c-4.41828,0 -8,-3.58172 -8,-8c0,-4.41828 3.58172,-8 8,-8c1.98573,-0.02211 3.90322,0.72382 5.352,2.082l-2.284,2.284c-0.8258,-0.78675 -1.92756,-1.21769 -3.068,-1.2c-2.087,0 -3.86,1.408 -4.492,3.304c-0.3345,0.9936 -0.3345,2.0694 0,3.063h0.003c0.635,1.893 2.405,3.301 4.492,3.301c1.078,0 2.004,-0.276 2.722,-0.764h-0.003c0.84263,-0.55795 1.42037,-1.4363 1.599,-2.431h-4.321v-3.08z"></path></g></g></svg>